<mxfile host="app.diagrams.net" modified="2023-12-13T20:49:57.405Z" agent="Mozilla/5.0 (Windows NT 10.0; Win64; x64) AppleWebKit/537.36 (KHTML, like Gecko) Chrome/120.0.0.0 Safari/537.36" etag="aR98z_ULK1e4ouX0Cl5n" version="22.1.8" type="github">
  <diagram name="Страница — 1" id="gELSFtdft1wvXhsUkOA7">
    <mxGraphModel dx="1400" dy="753" grid="1" gridSize="10" guides="1" tooltips="1" connect="1" arrows="1" fold="1" page="1" pageScale="1" pageWidth="827" pageHeight="1169" math="0" shadow="0">
      <root>
        <mxCell id="0" />
        <mxCell id="1" parent="0" />
        <mxCell id="JfNOckyh3DphQyNZQao9-12" value="" style="edgeStyle=orthogonalEdgeStyle;rounded=0;orthogonalLoop=1;jettySize=auto;html=1;" edge="1" parent="1" source="9fbm3dthz5vz2sUixFHw-1" target="JfNOckyh3DphQyNZQao9-11">
          <mxGeometry relative="1" as="geometry" />
        </mxCell>
        <mxCell id="9fbm3dthz5vz2sUixFHw-1" value="Beginning" style="ellipse;whiteSpace=wrap;html=1;" parent="1" vertex="1">
          <mxGeometry x="354" y="40" width="120" height="40" as="geometry" />
        </mxCell>
        <mxCell id="9fbm3dthz5vz2sUixFHw-5" value="" style="edgeStyle=orthogonalEdgeStyle;rounded=0;orthogonalLoop=1;jettySize=auto;html=1;" parent="1" source="9fbm3dthz5vz2sUixFHw-2" target="9fbm3dthz5vz2sUixFHw-4" edge="1">
          <mxGeometry relative="1" as="geometry" />
        </mxCell>
        <mxCell id="9fbm3dthz5vz2sUixFHw-2" value="Output Task 1" style="shape=parallelogram;perimeter=parallelogramPerimeter;whiteSpace=wrap;html=1;fixedSize=1;" parent="1" vertex="1">
          <mxGeometry x="354" y="181" width="120" height="40" as="geometry" />
        </mxCell>
        <mxCell id="9fbm3dthz5vz2sUixFHw-7" value="" style="edgeStyle=orthogonalEdgeStyle;rounded=0;orthogonalLoop=1;jettySize=auto;html=1;" parent="1" source="9fbm3dthz5vz2sUixFHw-4" target="9fbm3dthz5vz2sUixFHw-6" edge="1">
          <mxGeometry relative="1" as="geometry" />
        </mxCell>
        <mxCell id="9fbm3dthz5vz2sUixFHw-4" value="int min&lt;br&gt;double sec" style="rounded=0;whiteSpace=wrap;html=1;" parent="1" vertex="1">
          <mxGeometry x="376" y="251" width="76" height="39" as="geometry" />
        </mxCell>
        <mxCell id="9fbm3dthz5vz2sUixFHw-9" value="" style="edgeStyle=orthogonalEdgeStyle;rounded=0;orthogonalLoop=1;jettySize=auto;html=1;" parent="1" source="9fbm3dthz5vz2sUixFHw-6" target="9fbm3dthz5vz2sUixFHw-8" edge="1">
          <mxGeometry relative="1" as="geometry" />
        </mxCell>
        <mxCell id="9fbm3dthz5vz2sUixFHw-6" value="Input parameters.distance, &lt;br&gt;parameters.time" style="shape=parallelogram;perimeter=parallelogramPerimeter;whiteSpace=wrap;html=1;fixedSize=1;" parent="1" vertex="1">
          <mxGeometry x="345" y="310" width="138" height="50" as="geometry" />
        </mxCell>
        <mxCell id="9fbm3dthz5vz2sUixFHw-11" value="" style="edgeStyle=orthogonalEdgeStyle;rounded=0;orthogonalLoop=1;jettySize=auto;html=1;" parent="1" source="9fbm3dthz5vz2sUixFHw-8" target="9fbm3dthz5vz2sUixFHw-10" edge="1">
          <mxGeometry relative="1" as="geometry">
            <Array as="points">
              <mxPoint x="415" y="450" />
              <mxPoint x="415" y="450" />
            </Array>
          </mxGeometry>
        </mxCell>
        <mxCell id="9fbm3dthz5vz2sUixFHw-8" value="min=parameters.time&lt;br&gt;sec=getParameters&lt;br&gt;(parameters.time, min)" style="rounded=0;whiteSpace=wrap;html=1;" parent="1" vertex="1">
          <mxGeometry x="349" y="380" width="131" height="59" as="geometry" />
        </mxCell>
        <mxCell id="9fbm3dthz5vz2sUixFHw-13" value="" style="edgeStyle=orthogonalEdgeStyle;rounded=0;orthogonalLoop=1;jettySize=auto;html=1;" parent="1" source="9fbm3dthz5vz2sUixFHw-10" target="9fbm3dthz5vz2sUixFHw-12" edge="1">
          <mxGeometry relative="1" as="geometry" />
        </mxCell>
        <mxCell id="9fbm3dthz5vz2sUixFHw-10" value="Output parameters.distance, &lt;br&gt;min, sec" style="shape=parallelogram;perimeter=parallelogramPerimeter;whiteSpace=wrap;html=1;fixedSize=1;" parent="1" vertex="1">
          <mxGeometry x="347" y="460" width="136" height="49" as="geometry" />
        </mxCell>
        <mxCell id="9fbm3dthz5vz2sUixFHw-15" value="" style="edgeStyle=orthogonalEdgeStyle;rounded=0;orthogonalLoop=1;jettySize=auto;html=1;" parent="1" source="9fbm3dthz5vz2sUixFHw-12" target="9fbm3dthz5vz2sUixFHw-14" edge="1">
          <mxGeometry relative="1" as="geometry" />
        </mxCell>
        <mxCell id="9fbm3dthz5vz2sUixFHw-12" value="sec=sec+min*60" style="rounded=0;whiteSpace=wrap;html=1;" parent="1" vertex="1">
          <mxGeometry x="364" y="531" width="100" height="40" as="geometry" />
        </mxCell>
        <mxCell id="9fbm3dthz5vz2sUixFHw-17" value="" style="edgeStyle=orthogonalEdgeStyle;rounded=0;orthogonalLoop=1;jettySize=auto;html=1;" parent="1" source="9fbm3dthz5vz2sUixFHw-14" target="9fbm3dthz5vz2sUixFHw-16" edge="1">
          <mxGeometry relative="1" as="geometry" />
        </mxCell>
        <mxCell id="9fbm3dthz5vz2sUixFHw-14" value="Output sec" style="shape=parallelogram;perimeter=parallelogramPerimeter;whiteSpace=wrap;html=1;fixedSize=1;" parent="1" vertex="1">
          <mxGeometry x="364" y="591" width="100" height="40" as="geometry" />
        </mxCell>
        <mxCell id="9fbm3dthz5vz2sUixFHw-19" value="" style="edgeStyle=orthogonalEdgeStyle;rounded=0;orthogonalLoop=1;jettySize=auto;html=1;" parent="1" source="9fbm3dthz5vz2sUixFHw-16" target="9fbm3dthz5vz2sUixFHw-18" edge="1">
          <mxGeometry relative="1" as="geometry" />
        </mxCell>
        <mxCell id="9fbm3dthz5vz2sUixFHw-16" value="parameters.speed=&lt;br&gt;getParameters&lt;br&gt;(parameters.distance, sec)" style="rounded=0;whiteSpace=wrap;html=1;" parent="1" vertex="1">
          <mxGeometry x="339.5" y="656" width="151" height="54" as="geometry" />
        </mxCell>
        <mxCell id="9fbm3dthz5vz2sUixFHw-21" value="" style="edgeStyle=orthogonalEdgeStyle;rounded=0;orthogonalLoop=1;jettySize=auto;html=1;" parent="1" source="9fbm3dthz5vz2sUixFHw-18" target="9fbm3dthz5vz2sUixFHw-20" edge="1">
          <mxGeometry relative="1" as="geometry" />
        </mxCell>
        <mxCell id="9fbm3dthz5vz2sUixFHw-18" value="Output round(&lt;br&gt;parameters.speed*100)/100" style="shape=parallelogram;perimeter=parallelogramPerimeter;whiteSpace=wrap;html=1;fixedSize=1;" parent="1" vertex="1">
          <mxGeometry x="329.5" y="731" width="171" height="49" as="geometry" />
        </mxCell>
        <mxCell id="9fbm3dthz5vz2sUixFHw-23" value="" style="edgeStyle=orthogonalEdgeStyle;rounded=0;orthogonalLoop=1;jettySize=auto;html=1;" parent="1" source="9fbm3dthz5vz2sUixFHw-20" target="9fbm3dthz5vz2sUixFHw-22" edge="1">
          <mxGeometry relative="1" as="geometry" />
        </mxCell>
        <mxCell id="9fbm3dthz5vz2sUixFHw-20" value="Output Task 2" style="shape=parallelogram;perimeter=parallelogramPerimeter;whiteSpace=wrap;html=1;fixedSize=1;" parent="1" vertex="1">
          <mxGeometry x="359" y="801" width="110" height="40" as="geometry" />
        </mxCell>
        <mxCell id="9fbm3dthz5vz2sUixFHw-25" value="" style="edgeStyle=orthogonalEdgeStyle;rounded=0;orthogonalLoop=1;jettySize=auto;html=1;" parent="1" source="9fbm3dthz5vz2sUixFHw-22" target="9fbm3dthz5vz2sUixFHw-24" edge="1">
          <mxGeometry relative="1" as="geometry" />
        </mxCell>
        <mxCell id="9fbm3dthz5vz2sUixFHw-22" value="double V, r, S, pi=3.14159" style="rounded=0;whiteSpace=wrap;html=1;" parent="1" vertex="1">
          <mxGeometry x="359" y="871" width="110" height="50" as="geometry" />
        </mxCell>
        <mxCell id="9fbm3dthz5vz2sUixFHw-27" value="" style="edgeStyle=orthogonalEdgeStyle;rounded=0;orthogonalLoop=1;jettySize=auto;html=1;" parent="1" source="9fbm3dthz5vz2sUixFHw-24" target="9fbm3dthz5vz2sUixFHw-26" edge="1">
          <mxGeometry relative="1" as="geometry" />
        </mxCell>
        <mxCell id="9fbm3dthz5vz2sUixFHw-24" value="Input r" style="shape=parallelogram;perimeter=parallelogramPerimeter;whiteSpace=wrap;html=1;fixedSize=1;" parent="1" vertex="1">
          <mxGeometry x="369" y="941" width="90" height="40" as="geometry" />
        </mxCell>
        <mxCell id="9fbm3dthz5vz2sUixFHw-29" value="" style="edgeStyle=orthogonalEdgeStyle;rounded=0;orthogonalLoop=1;jettySize=auto;html=1;" parent="1" source="9fbm3dthz5vz2sUixFHw-26" target="9fbm3dthz5vz2sUixFHw-28" edge="1">
          <mxGeometry relative="1" as="geometry" />
        </mxCell>
        <mxCell id="9fbm3dthz5vz2sUixFHw-26" value="V=pi*r^3*4/3&lt;br&gt;S=4*pi*r^2" style="rounded=0;whiteSpace=wrap;html=1;" parent="1" vertex="1">
          <mxGeometry x="369" y="1001" width="90" height="40" as="geometry" />
        </mxCell>
        <mxCell id="9fbm3dthz5vz2sUixFHw-31" value="" style="edgeStyle=orthogonalEdgeStyle;rounded=0;orthogonalLoop=1;jettySize=auto;html=1;" parent="1" source="9fbm3dthz5vz2sUixFHw-28" target="9fbm3dthz5vz2sUixFHw-30" edge="1">
          <mxGeometry relative="1" as="geometry" />
        </mxCell>
        <mxCell id="9fbm3dthz5vz2sUixFHw-28" value="Output round(V*100)/100&lt;br&gt;round(S*100)/100" style="shape=parallelogram;perimeter=parallelogramPerimeter;whiteSpace=wrap;html=1;fixedSize=1;" parent="1" vertex="1">
          <mxGeometry x="349" y="1071" width="130" height="60" as="geometry" />
        </mxCell>
        <mxCell id="9fbm3dthz5vz2sUixFHw-30" value="End" style="ellipse;whiteSpace=wrap;html=1;" parent="1" vertex="1">
          <mxGeometry x="354" y="1151" width="120" height="40" as="geometry" />
        </mxCell>
        <mxCell id="JfNOckyh3DphQyNZQao9-1" value="Struct Parameters" style="swimlane;fontStyle=0;childLayout=stackLayout;horizontal=1;startSize=30;horizontalStack=0;resizeParent=1;resizeParentMax=0;resizeLast=0;collapsible=1;marginBottom=0;whiteSpace=wrap;html=1;" vertex="1" parent="1">
          <mxGeometry x="150" y="450" width="140" height="120" as="geometry" />
        </mxCell>
        <mxCell id="JfNOckyh3DphQyNZQao9-2" value="double time" style="text;strokeColor=none;fillColor=none;align=left;verticalAlign=middle;spacingLeft=4;spacingRight=4;overflow=hidden;points=[[0,0.5],[1,0.5]];portConstraint=eastwest;rotatable=0;whiteSpace=wrap;html=1;" vertex="1" parent="JfNOckyh3DphQyNZQao9-1">
          <mxGeometry y="30" width="140" height="30" as="geometry" />
        </mxCell>
        <mxCell id="JfNOckyh3DphQyNZQao9-3" value="double speed" style="text;strokeColor=none;fillColor=none;align=left;verticalAlign=middle;spacingLeft=4;spacingRight=4;overflow=hidden;points=[[0,0.5],[1,0.5]];portConstraint=eastwest;rotatable=0;whiteSpace=wrap;html=1;" vertex="1" parent="JfNOckyh3DphQyNZQao9-1">
          <mxGeometry y="60" width="140" height="30" as="geometry" />
        </mxCell>
        <mxCell id="JfNOckyh3DphQyNZQao9-4" value="int distance" style="text;strokeColor=none;fillColor=none;align=left;verticalAlign=middle;spacingLeft=4;spacingRight=4;overflow=hidden;points=[[0,0.5],[1,0.5]];portConstraint=eastwest;rotatable=0;whiteSpace=wrap;html=1;" vertex="1" parent="JfNOckyh3DphQyNZQao9-1">
          <mxGeometry y="90" width="140" height="30" as="geometry" />
        </mxCell>
        <mxCell id="JfNOckyh3DphQyNZQao9-7" value="" style="edgeStyle=orthogonalEdgeStyle;rounded=0;orthogonalLoop=1;jettySize=auto;html=1;" edge="1" parent="1" source="JfNOckyh3DphQyNZQao9-5" target="JfNOckyh3DphQyNZQao9-6">
          <mxGeometry relative="1" as="geometry" />
        </mxCell>
        <mxCell id="JfNOckyh3DphQyNZQao9-5" value="double getParameters&lt;br&gt;(double time, int min)" style="rounded=0;whiteSpace=wrap;html=1;" vertex="1" parent="1">
          <mxGeometry x="545" y="344.5" width="130" height="50" as="geometry" />
        </mxCell>
        <mxCell id="JfNOckyh3DphQyNZQao9-6" value="double sec=&lt;br&gt;(time-min)*100&lt;br&gt;return sec" style="rounded=0;whiteSpace=wrap;html=1;" vertex="1" parent="1">
          <mxGeometry x="562.5" y="424.5" width="95" height="50" as="geometry" />
        </mxCell>
        <mxCell id="JfNOckyh3DphQyNZQao9-8" value="" style="edgeStyle=orthogonalEdgeStyle;rounded=0;orthogonalLoop=1;jettySize=auto;html=1;" edge="1" parent="1" source="JfNOckyh3DphQyNZQao9-9" target="JfNOckyh3DphQyNZQao9-10">
          <mxGeometry relative="1" as="geometry" />
        </mxCell>
        <mxCell id="JfNOckyh3DphQyNZQao9-9" value="double getParameters&lt;br&gt;(int distance, double sec)" style="rounded=0;whiteSpace=wrap;html=1;" vertex="1" parent="1">
          <mxGeometry x="540" y="531" width="140" height="50" as="geometry" />
        </mxCell>
        <mxCell id="JfNOckyh3DphQyNZQao9-10" value="double speed=&lt;br&gt;distance/sec*60&lt;br&gt;*60/1000&lt;br&gt;return speed" style="rounded=0;whiteSpace=wrap;html=1;" vertex="1" parent="1">
          <mxGeometry x="561.25" y="611" width="97.5" height="60" as="geometry" />
        </mxCell>
        <mxCell id="JfNOckyh3DphQyNZQao9-11" value="Parameters parameters" style="rounded=0;whiteSpace=wrap;html=1;" vertex="1" parent="1">
          <mxGeometry x="374" y="100" width="80" height="50" as="geometry" />
        </mxCell>
        <mxCell id="JfNOckyh3DphQyNZQao9-14" value="" style="edgeStyle=orthogonalEdgeStyle;rounded=0;orthogonalLoop=1;jettySize=auto;html=1;exitX=0.5;exitY=1;exitDx=0;exitDy=0;entryX=0.5;entryY=0;entryDx=0;entryDy=0;" edge="1" parent="1" source="JfNOckyh3DphQyNZQao9-11" target="9fbm3dthz5vz2sUixFHw-2">
          <mxGeometry relative="1" as="geometry">
            <mxPoint x="424" y="231" as="sourcePoint" />
            <mxPoint x="424" y="261" as="targetPoint" />
          </mxGeometry>
        </mxCell>
      </root>
    </mxGraphModel>
  </diagram>
</mxfile>
